<svg width="83" height="83" viewBox="0 0 83 83" fill="none" xmlns="http://www.w3.org/2000/svg">
<path d="M49.754 10.331C48.7865 10.51 48.1822 10.7356 47.8424 10.9042C49.0355 12.7354 51.5281 15.0672 50.0056 18.1123C48.6439 20.8357 45.8141 20.6749 43.3578 20.7605C44.8648 22.8199 46.6078 24.9079 45.2642 27.5976C44.3772 29.3743 42.4526 30.513 39.379 31.081C37.955 31.3404 36.6141 30.3988 36.3547 29.0034C36.0927 27.595 37.0239 26.2411 38.4323 25.9791C39.3997 25.8001 40.0067 25.5745 40.3465 25.4033C39.1482 23.5851 36.6659 21.2299 38.1807 18.1978C39.5398 15.4822 42.367 15.6352 44.8285 15.5496C43.3189 13.4902 41.5785 11.4022 42.9221 8.7125C43.8091 6.93838 45.7337 5.79972 48.8073 5.2291C50.2157 4.95935 51.567 5.89828 51.8316 7.30669C52.0936 8.71769 51.1624 10.0716 49.754 10.331Z" fill="#FCE153"/>
<path d="M64.8003 44.8174C61.6282 46.3918 59.0292 43.5802 57.5793 42.6438C57.4341 42.9603 57.2007 43.5724 57.0191 44.5658C56.7519 46.0053 55.3617 46.9028 53.9948 46.6434C52.5864 46.3814 51.6552 45.0301 51.9172 43.6191C52.4878 40.5455 53.6265 38.6209 55.4006 37.7338C58.1007 36.3851 60.1057 38.0788 62.2377 39.6403C62.3233 37.1528 62.1755 34.3464 64.8859 32.9925C68.0373 31.4181 70.5974 34.1804 72.1069 35.166C72.2522 34.847 72.4856 34.2375 72.6672 33.2467C72.9292 31.8383 74.2701 30.9019 75.6915 31.1691C77.0999 31.431 78.0311 32.785 77.7691 34.1934C77.1985 37.267 76.0598 39.1889 74.2857 40.0786C71.5856 41.4273 69.5806 39.7336 67.4486 38.1722C67.3681 40.5455 67.5497 43.4427 64.8003 44.8174Z" fill="#FCE153"/>
<path d="M8.68326 77.6517L50.9692 61.9439C50.9847 61.9387 50.9925 61.9258 51.0081 61.9206C51.7343 61.6768 52.3931 61.2981 52.9534 60.7352C57.3498 56.3388 51.3997 46.3814 44.0101 38.9892C36.6205 31.597 26.6605 25.6496 22.2641 30.046C21.6961 30.614 21.307 31.278 21.0658 32.0146C21.0632 32.0198 21.058 32.025 21.0554 32.0302L5.3477 74.3135C4.99495 75.2654 5.22839 76.334 5.94426 77.0525C6.66532 77.7736 7.73654 78.0018 8.68326 77.6517ZM25.9317 33.7576C26.0329 33.7239 26.1496 33.6954 26.313 33.6954C28.1182 33.6954 33.5936 35.9104 40.3426 42.6568C47.8178 50.1346 49.7294 56.0483 49.3585 57.0132C48.2587 57.5008 42.3527 55.5996 34.8749 48.1244C27.807 41.0564 25.7424 35.441 25.8487 34.0274C25.8565 33.9989 25.8072 34.1234 25.9317 33.7576ZM23.1201 41.3677C25.0576 44.8822 27.9937 48.5783 31.2048 51.7894C34.3017 54.8863 37.8422 57.6979 41.2426 59.6329C35.4248 59.485 22.3627 58.266 19.6963 50.5833L23.1201 41.3677ZM17.3879 56.8005C20.7338 60.6522 26.0458 62.6961 31.1996 63.7518L12.1822 70.8171L17.3879 56.8005Z" fill="#039555"/>
<path d="M77.8122 18.1563C77.8122 19.588 76.6502 20.75 75.2184 20.75C65.912 20.75 56.2114 27.9969 51.4389 35.1583C50.6426 36.3514 49.0319 36.6704 47.8414 35.8768C46.6509 35.0831 46.3292 33.4723 47.1229 32.2792C52.4894 24.2282 63.5725 15.5625 75.2184 15.5625C76.6502 15.5625 77.8122 16.7245 77.8122 18.1563Z" fill="#FCE153"/>
<path d="M72.625 7.78125C72.625 9.213 71.463 10.375 70.0312 10.375C68.5995 10.375 67.4375 9.213 67.4375 7.78125C67.4375 6.3495 68.5995 5.1875 70.0312 5.1875C71.463 5.1875 72.625 6.3495 72.625 7.78125Z" fill="#039555"/>
<path d="M67.4375 51.875C67.4375 53.3067 66.2755 54.4688 64.8438 54.4688C63.412 54.4688 62.25 53.3067 62.25 51.875C62.25 50.4433 63.412 49.2812 64.8438 49.2812C66.2755 49.2812 67.4375 50.4433 67.4375 51.875Z" fill="#039555"/>
<path d="M33.7188 10.375C33.7188 11.8067 32.5567 12.9688 31.125 12.9688C29.6933 12.9688 28.5312 11.8067 28.5312 10.375C28.5312 8.94325 29.6933 7.78125 31.125 7.78125C32.5567 7.78125 33.7188 8.94325 33.7188 10.375Z" fill="#039555"/>
</svg>
